<svg xmlns="http://www.w3.org/2000/svg" viewBox="0 0 128 128" role="img" aria-label="Cookagent app icon">
  <defs>
    <linearGradient id="bg" x1="18" y1="10" x2="110" y2="118" gradientUnits="userSpaceOnUse">
      <stop stop-color="#0f3f2c" />
      <stop offset="0.58" stop-color="#14532d" />
      <stop offset="1" stop-color="#6b4f1d" />
    </linearGradient>
    <linearGradient id="pan" x1="30" y1="52" x2="94" y2="95" gradientUnits="userSpaceOnUse">
      <stop stop-color="#fff7ed" />
      <stop offset="1" stop-color="#fde68a" />
    </linearGradient>
  </defs>
  <rect width="128" height="128" rx="28" fill="url(#bg)" />
  <path d="M32 66h57a20 20 0 0 1-20 20H52a20 20 0 0 1-20-20Z" fill="url(#pan)" />
  <path d="M89 66h14a7 7 0 0 1 0 14H87" fill="none" stroke="#fde68a" stroke-width="8" stroke-linecap="round" />
  <path d="M38 60h45" stroke="#fff7ed" stroke-width="8" stroke-linecap="round" />
  <path d="M48 51c-5-9 5-13 1-22M64 51c-5-9 5-13 1-22M80 51c-5-9 5-13 1-22" fill="none" stroke="#bbf7d0" stroke-width="5" stroke-linecap="round" />
  <path d="M30 93h62" stroke="#052e16" stroke-width="8" stroke-linecap="round" opacity="0.35" />
  <path d="M88 34l4 8 9 3-9 3-4 8-4-8-9-3 9-3 4-8Z" fill="#fef3c7" />
  <circle cx="36" cy="37" r="4" fill="#86efac" />
  <circle cx="101" cy="56" r="3" fill="#fcd34d" />
  <path d="M45 72h31" stroke="#14532d" stroke-width="5" stroke-linecap="round" opacity="0.7" />
</svg>
