<svg xmlns="http://www.w3.org/2000/svg" viewBox="0 0 48 48" role="img" aria-label="Cookagent logo">
  <defs>
    <linearGradient id="cookagent-mark-bg" x1="6" y1="4" x2="42" y2="44" gradientUnits="userSpaceOnUse">
      <stop stop-color="#0f3f2c" />
      <stop offset="0.65" stop-color="#14532d" />
      <stop offset="1" stop-color="#7c5c23" />
    </linearGradient>
  </defs>
  <rect width="48" height="48" rx="11" fill="url(#cookagent-mark-bg)" />
  <path d="M11 25h22a8 8 0 0 1-8 8h-6a8 8 0 0 1-8-8Z" fill="#fde68a" />
  <path d="M33 25h5a3 3 0 0 1 0 6h-6" fill="none" stroke="#fde68a" stroke-width="4" stroke-linecap="round" />
  <path d="M14 22h17" stroke="#fff7ed" stroke-width="4" stroke-linecap="round" />
  <path d="M17 18c-2-4 2-5 1-9M24 18c-2-4 2-5 1-9M31 18c-2-4 2-5 1-9" fill="none" stroke="#bbf7d0" stroke-width="2.4" stroke-linecap="round" />
  <path d="M35 9l1.7 3.5 3.8 1.3-3.8 1.3L35 18.6l-1.7-3.5-3.8-1.3 3.8-1.3L35 9Z" fill="#fef3c7" />
  <circle cx="14" cy="13" r="1.7" fill="#86efac" />
</svg>
